<svg width="50" height="58" viewBox="0 0 50 58" fill="none" xmlns="http://www.w3.org/2000/svg">
<path d="M17.5 19.8999H20.5V43.8999H17.5V19.8999Z" fill="#5B6865"/>
<path d="M23.5 19.8999H26.5V43.8999H23.5V19.8999Z" fill="#5B6865"/>
<path d="M29.5 19.8999H32.5V43.8999H29.5V19.8999Z" fill="#5B6865"/>
<path d="M5.5 10.8999H44.5V13.8999H5.5V10.8999Z" fill="#5B6865"/>
<path d="M32.4001 12.4H29.6001V9.39999C29.6001 8.49999 28.9001 7.8 28.0001 7.8H22.0001C21.1001 7.8 20.4001 8.49999 20.4001 9.39999V12.4H17.6001V9.39999C17.6001 6.99999 19.6001 5 22.0001 5H28.0001C30.4001 5 32.4001 6.99999 32.4001 9.39999V12.4Z" fill="#5B6865"/>
<path d="M34 52.8998H16C13.6 52.8998 11.5 50.8998 11.3 48.4998L8.5 12.4998L11.5 12.2998L14.3 48.2998C14.4 49.1998 15.2 49.8998 16 49.8998H34C34.9 49.8998 35.7 49.0998 35.7 48.2998L38.5 12.2998L41.5 12.4998L38.7 48.4998C38.5 50.9998 36.4 52.8998 34 52.8998Z" fill="#5B6865"/>
</svg>
