<svg width="60" height="60" viewBox="0 0 60 60" fill="none" xmlns="http://www.w3.org/2000/svg">
<path d="M50.6897 26.6897H33.3103V9.31034C33.3103 7.48966 31.8207 6 30 6C28.1793 6 26.6897 7.48966 26.6897 9.31034V26.6897H9.31034C7.48966 26.6897 6 28.1793 6 30C6 31.8207 7.48966 33.3103 9.31034 33.3103H26.6897V50.6897C26.6897 52.5103 28.1793 54 30 54C31.8207 54 33.3103 52.5103 33.3103 50.6897V33.3103H50.6897C52.5103 33.3103 54 31.8207 54 30C54 28.1793 52.5103 26.6897 50.6897 26.6897Z" fill="#5B6865"/>
</svg>
